<?xml version="1.0" encoding="utf-8"?>
<!-- Generator: Adobe Illustrator 18.0.0, SVG Export Plug-In . SVG Version: 6.00 Build 0)  -->
<!DOCTYPE svg PUBLIC "-//W3C//DTD SVG 1.1//EN" "http://www.w3.org/Graphics/SVG/1.1/DTD/svg11.dtd">
<svg version="1.1" id="Layer_1" xmlns="http://www.w3.org/2000/svg" xmlns:xlink="http://www.w3.org/1999/xlink" x="0px" y="0px"
	 viewBox="0 0 239 41" enable-background="new 0 0 239 41" xml:space="preserve">
<g>
	<path fill="#FFFFFF" d="M35.1,24.5c-0.7,0.5-1.6,0.5-2.2,0.1c-0.8-0.5-1.3-1.5-1.3-3v-4.5c0-2.2-0.9-3.7-2.3-4.1
		c-2.4-0.7-4.2,2.3-4.9,3.4l-4.3,6.9v-8.5c0-1.9-0.7-3.1-1.9-3.5c-0.8-0.2-2-0.1-3.1,1.6L5.6,28.4c-1.3-2.4-1.9-5.1-1.9-7.9
		c0-9.2,7.4-16.8,16.5-16.8s16.5,7.5,16.5,16.8c0,0,0,0,0,0c0,0,0,0,0,0C36.8,22.4,36.2,23.8,35.1,24.5L35.1,24.5z M40.4,20.5
		L40.4,20.5L40.4,20.5L40.4,20.5C40.3,9.1,31.3,0,20.2,0C9.1,0,0,9.2,0,20.5C0,31.8,9.1,41,20.2,41c5.1,0,10-1.9,13.7-5.5
		c0.7-0.7,0.8-1.9,0.1-2.6c-0.7-0.7-1.8-0.8-2.6-0.1c0,0,0,0,0,0c-3,2.9-7.1,4.5-11.2,4.5c-4.9,0-9.3-2.2-12.3-5.6l8.6-13.8v6.4
		c0,3.1,1.2,4.1,2.2,4.3c1,0.3,2.5,0.1,4.1-2.5l4.7-7.7c0.2-0.2,0.3-0.5,0.4-0.6v3.9c0,2.9,1.1,5.2,3.1,6.3c1.8,1,4.1,0.9,5.9-0.2
		C39.3,26.3,40.5,23.6,40.4,20.5z M68.5,13.5c0.5,0.3,0.9,1,0.9,1.5c0,1-0.8,1.7-1.7,1.7c-0.2,0-0.5-0.1-0.6-0.1
		c-1.1-0.8-2.4-1.3-3.8-1.3c-3.4,0-5.7,2.8-5.7,6.2c0,3.4,2.3,6.1,5.7,6.1c1.7,0,3.2-0.7,4.3-1.7c0.3-0.2,0.6-0.3,1-0.3
		c0.9,0,1.6,0.7,1.6,1.6c0,0.6-0.4,1.1-0.8,1.4c-1.6,1.4-3.8,2.3-6.1,2.3c-5.2,0-9.4-4.3-9.4-9.5s4.2-9.5,9.4-9.5
		C65.2,11.9,67,12.5,68.5,13.5z M78,17.5c3.5,0,6.5,3,6.5,6.7c0,3.7-3,6.8-6.5,6.8c-3.7,0-6.8-3.1-6.8-6.8
		C71.2,20.5,74.3,17.5,78,17.5z M77.9,27.6c1.6,0,2.9-1.5,2.9-3.5c0-2-1.3-3.2-2.9-3.2c-1.7,0-3.1,1.2-3.1,3.2
		C74.8,26.2,76.2,27.6,77.9,27.6z M86.7,28.9v-9.4c0-1,0.8-1.9,1.8-1.9s1.8,0.9,1.8,1.9v9.4c0,1-0.8,1.9-1.8,1.9
		C87.5,30.8,86.7,29.9,86.7,28.9z M86.4,14.1c0-1.2,0.9-2.2,2.1-2.2c1.2,0,2.2,1,2.2,2.2c0,1.2-1,2.1-2.2,2.1
		C87.3,16.2,86.4,15.3,86.4,14.1z M97.3,23.8v5.1c0,1-0.8,1.9-1.8,1.9c-1,0-1.8-0.9-1.8-1.9v-9.8c0-0.8,0.6-1.4,1.4-1.4
		c0.8,0,1.4,0.7,1.4,1.4c1.5-1.4,2.8-1.6,4-1.6c3.7,0,5.3,2.8,5.3,5.9v5.5c0,1-0.8,1.9-1.8,1.9c-1,0-1.8-0.9-1.8-1.9v-5.1
		c0-1.6-0.2-3-2.5-3C98,20.8,97.3,22.2,97.3,23.8L97.3,23.8z M117.6,25.7c-0.4,0-0.7-0.2-0.9-0.5l-4.3-4.6v8.2c0,1-0.8,1.9-1.8,1.9
		c-1,0-1.8-0.9-1.8-1.9V12.6c0.1-0.3,0.4-0.5,0.7-0.5c0.3,0,0.6,0.3,0.8,0.5l6.8,7.6c0.2,0.2,0.5,0.4,0.6,0.4c0.1,0,0.4-0.1,0.6-0.4
		l6.8-7.6c0.2-0.2,0.5-0.5,0.8-0.5s0.6,0.2,0.7,0.5v16.3c0,1-0.8,1.9-1.8,1.9s-1.8-0.9-1.8-1.9v-8.2l-4.3,4.6
		C118.3,25.5,118,25.7,117.6,25.7L117.6,25.7z M135.2,27.6c1.6,0,3-1.5,3-3.5c0-2-1.4-3.3-3-3.3s-2.9,1.3-2.9,3.3
		C132.3,26.1,133.6,27.6,135.2,27.6z M139.1,29.3l-0.1-0.4c-0.7,1.4-3,2-4.4,2c-3.4,0-5.9-3.1-5.9-6.8c0-3.7,2.6-6.7,6.1-6.7
		c0.6,0,2.6,0.2,4.2,2l0.1-0.4c0-0.8,0.6-1.4,1.4-1.4c0.8,0,1.4,0.7,1.4,1.4v10.2c0,0.8-0.6,1.4-1.4,1.4
		C139.7,30.8,139.1,30.1,139.1,29.3L139.1,29.3z M152,20.8h-0.4c-2.3,0.1-2.7,1.4-2.7,3v5.1c0,1-0.8,1.9-1.8,1.9s-1.8-0.9-1.8-1.9
		v-9.8c0-0.8,0.6-1.4,1.4-1.4s1.4,0.7,1.4,1.4c1.4-1.3,2.5-1.5,3.6-1.6h0.4c0.9,0,1.7,0.8,1.7,1.7C153.7,20.1,152.9,20.8,152,20.8
		L152,20.8z M166.1,28c0.2,0.3,0.3,0.6,0.3,0.9c0,1-0.9,1.8-1.8,1.8c-0.6,0-1.2-0.5-1.6-1l-4.2-4.9v4c0,1-0.8,1.9-1.8,1.9
		s-1.8-0.9-1.8-1.9V14c0-1,0.8-1.9,1.8-1.9s1.8,0.9,1.8,1.9v9.3l4.2-4.7c0.4-0.5,0.9-1,1.6-1c0.9,0,1.7,0.9,1.7,1.8
		c0,0.3-0.1,0.6-0.2,0.9l-3.3,3.6L166.1,28L166.1,28z M173.2,20.9c-1,0-2.6,0.5-2.6,2.1h5.3C175.9,21.4,174.2,20.9,173.2,20.9
		L173.2,20.9z M178,25.3h-7.4c0,2.2,2.1,2.5,3,2.5c0.7,0,1.6-0.1,2.4-0.5c0.2-0.2,0.6-0.3,0.9-0.3c0.8,0,1.5,0.7,1.5,1.5
		c0,0.6-0.4,1-0.8,1.3c-1.1,0.8-2.6,1-4,1c-3.7,0-6.8-2-6.8-6.6c0-3.6,1.9-6.8,6.2-6.8c3.5,0,6.2,2.3,6.3,6.4
		C179.4,24.6,178.8,25.3,178,25.3L178,25.3z M188.2,30.9h-1c-2.8,0-4.4-1.2-4.4-5.6v-4.5h-0.9c-0.9,0-1.6-0.8-1.6-1.7
		c0-1,0.8-1.7,1.6-1.7h0.9V14c0-1,0.8-1.9,1.8-1.9c1,0,1.8,0.9,1.8,1.9v3.5h1.5c0.9,0,1.6,0.8,1.6,1.7c0,0.9-0.8,1.7-1.6,1.7h-1.5
		v3.8c0,2.5,0.1,3,1.2,3h0.5c0.9,0,1.6,0.7,1.6,1.6C189.8,30.2,189.1,30.9,188.2,30.9L188.2,30.9z M205.9,13.5
		c0.5,0.3,0.9,1,0.9,1.5c0,1-0.8,1.7-1.7,1.7c-0.2,0-0.5-0.1-0.6-0.1c-1.1-0.8-2.4-1.3-3.8-1.3c-3.4,0-5.7,2.8-5.7,6.2
		c0,3.4,2.3,6.1,5.7,6.1c1.7,0,3.2-0.7,4.3-1.7c0.3-0.2,0.6-0.3,1-0.3c0.9,0,1.6,0.7,1.6,1.6c0,0.6-0.4,1.1-0.8,1.4
		c-1.6,1.4-3.8,2.3-6.1,2.3c-5.2,0-9.4-4.3-9.4-9.5s4.2-9.5,9.4-9.5C202.6,11.9,204.4,12.5,205.9,13.5L205.9,13.5z M215.1,27.6
		c1.6,0,3-1.5,3-3.5c0-2-1.4-3.3-3-3.3c-1.6,0-2.9,1.3-2.9,3.3C212.2,26.1,213.5,27.6,215.1,27.6L215.1,27.6z M219,29.3l-0.1-0.4
		c-0.7,1.4-3,2-4.4,2c-3.4,0-5.9-3.1-5.9-6.8c0-3.7,2.6-6.7,6.1-6.7c0.6,0,2.6,0.2,4.2,2l0.1-0.4c0-0.8,0.6-1.4,1.4-1.4
		c0.8,0,1.4,0.7,1.4,1.4v10.2c0,0.8-0.6,1.4-1.4,1.4C219.6,30.8,219,30.1,219,29.3z M231.9,27.6c1.6,0,2.9-1.5,2.9-3.5
		c0-2-1.3-3.3-2.9-3.3s-3,1.3-3,3.3S230.2,27.6,231.9,27.6z M228.8,29.8v4.7c0,1-0.8,1.9-1.8,1.9c-1,0-1.8-0.9-1.8-1.9V19.1
		c0-0.8,0.6-1.4,1.4-1.4c0.8,0,1.4,0.7,1.4,1.6c1.4-1.4,3-1.7,4.3-1.7c3.6,0,6.1,3,6.1,6.7c0,3.7-2.5,6.8-5.9,6.8
		C231.4,30.9,229.8,30.6,228.8,29.8L228.8,29.8z"/>
</g>
</svg>
